<?xml version="1.0" encoding="UTF-8"?>
<svg id="Layer_1" data-name="Layer 1" xmlns="http://www.w3.org/2000/svg" viewBox="0 0 472.56 269.04">
  <path d="m468.41,194.09c-4.19-3.95-7.95-7.31-11.49-10.02.4-.69.82-1.39,1.28-2.1,2.55-4.01,2.75-9.07.53-13.26-2.22-4.19-6.52-6.87-11.27-7.02-.78-.02-1.52-.03-2.18-.04-.44,0-.88,0-1.32,0-7.37,0-15.13.57-22.57,1.61-2.24-4.62-6.91-7.44-11.87-7.44-1.43,0-2.89.23-4.32.73-2.6.9-5.26,1.8-7.97,2.7,1.13-3.75,1.81-7.81,2.03-12.16.22-4.39-.06-8.32-.83-11.7-.82-3.59-2.07-6.81-3.73-9.56-.16-.27-.33-.55-.5-.81,1.73-2.05,2.91-4.56,3.33-7.27l2.5-15.91c.39-2.43.15-4.97-.69-7.31l-.16-.44c-1.61-4.48-5.3-7.93-9.87-9.24-3.84-1.11-7.6-1.67-11.17-1.67h0c-1.48,0-2.96.1-4.38.29,0,0-.02,0-.02,0,.02-.21.05-.42.07-.63.62-7.26-3.27-13.67-10.4-17.15-1.85-.9-3.94-1.62-6.31-2.18-2.58-3.43-6.07-6.25-10.2-8.1-4.65-2.09-9.2-2.7-12.75-2.87-1.28-3.59-4.08-6.53-7.76-7.93-2.01-.77-4.15-1.17-6.35-1.17-3.17,0-6.35.82-9.19,2.38-4.97,2.7-8.7,7.46-10.26,13.06-.48,1.72-.73,3.47-.77,5.22-1.21-.33-2.41-.61-3.6-.85,0-5.65-2.17-10.97-6.51-14.72-3.39-2.94-7.83-4.56-12.5-4.56-.66,0-1.33.04-1.99.1-2.51-3.61-6.05-6.57-10.42-8.34-2.83-1.15-5.8-1.73-8.84-1.73-2.33,0-4.6.35-6.76.99-2.3-1.58-5.08-2.53-8.08-2.57l-12.42-.17c-.06,0-.14,0-.2,0-7.97,0-14.55,6.49-14.66,14.46l-.05,3.39c-2.14-.29-4.23-.45-6.21-.45h0c-1.54,0-3.06.09-4.51.27-6.72.82-12.68,3.57-17.38,7.99-1.3-1.97-3.08-3.63-5.21-4.79-2.14-1.17-4.56-1.78-7.01-1.78-1.8,0-3.57.33-5.25.97l-2.54.97c-4.36,1.67-7.68,5.36-8.89,9.87l-2.79,10.4c0-.25,0-.5-.02-.75l-.09-1.88c-.18-3.73-1.84-7.22-4.58-9.72,1.43-3.05,2.01-6.47,1.6-9.99-.05-.47-.13-.92-.22-1.38,4.57-2.23,8.42-5.94,10.74-10.66,5.61-11.38.92-25.21-10.47-30.82-1.37-.67-2.8-1.21-4.27-1.6-1.78-1.68-3.81-3.09-6.05-4.2C137.3.88,133.52,0,129.76,0c0,0,0,0,0,0-3.29,0-6.51.65-9.49,1.89-1.1-.16-2.21-.24-3.32-.24-8.83,0-16.74,4.92-20.65,12.84-1.66,3.37-2.41,6.95-2.36,10.47-.15.02-.31.03-.46.05-.04,0-.08.01-.12.02-2.01.33-3.99.63-5.89.89l-3.13.43c-.83.11-1.71.21-2.62.3-1.69.15-3.29.6-4.74,1.3-.87-.12-1.77-.17-2.67-.17-1.03,0-2.1.07-3.17.22-.41.06-.85.13-1.36.22-.36.06-.83.15-1.39.26-.55.1-1.01.19-1.4.27-.11.02-.19.04-.26.05-.99.14-1.95.25-2.86.33-.46.04-.9.11-1.34.19-.31.03-.63.06-.93.12-1.92.32-3.76.6-5.5.84l-3.45.48c-1.73.24-3.56.47-5.44.67-.3.03-.6.08-.9.13-.38.04-.77.09-1.14.16-.01,0-.03,0-.04,0-1.1.21-1.75.31-2.11.36-.26.04-.9.12-2.09.22-1.5.13-2.92.5-4.24,1.06-.59-.08-1.18-.12-1.78-.12-.97,0-1.95.1-2.9.31-.39.08-.83.16-1.3.23-.17.02-.75.1-1.99.21-.61.05-1.19.16-1.77.29-.45.02-.89.06-1.33.13-.06,0-.12.02-.19.03-2.01.33-4,.63-5.89.9l-3.12.43c-.82.11-1.71.21-2.63.3-7.07.64-12.46,6.47-12.53,13.57v1.06c-.04,2.38.56,4.67,1.65,6.68l-.59,13.12C.8,72.78-.04,75.51,0,78.34v1.04c.08,4.05,1.9,7.84,5.01,10.41,2.44,2.03,5.56,3.15,8.77,3.15.78,0,1.56-.07,2.32-.2.02,0,.04,0,.05,0,.96-.17,1.9-.32,2.8-.44l3.27-.45c1.85-.26,3.77-.5,5.72-.73.51-.06,1.01-.15,1.5-.27.53-.03,1.07-.08,1.59-.17.01,0,.02,0,.04,0,1.21-.21,1.92-.32,2.29-.37.38-.05,1.08-.14,2.24-.26,1.62-.16,3.16-.6,4.55-1.27.92.19,1.86.29,2.82.29.34,0,.68-.01,1.02-.04-2.6,6.28-4,13.49-4.17,21.54-.23,11.26,2.08,20.47,6.88,27.35,4.27,6.13,10.34,10.02,17.4,11.25-.14,1.04-.2,2.08-.16,3.13,0,0,0,0,0,0-3.46,1.41-6.57,3.16-9.27,5.22-2.98,2.25-5.48,4.88-7.45,7.81-.09.14-.18.27-.26.41l-.06.09c-.27.41-.64,1-1.02,1.71-.05.09-.1.19-.16.3l-.1.18c-.09.16-.17.31-.25.47-.21.42-.38.81-.61,1.32l-.1.22c-.16.35-.29.67-.42,1.03l-.27.75c-1.17,3.22-1.57,6.58-1.24,9.81-.96.38-1.88.82-2.76,1.32-5.42,3.12-8.66,8.5-8.67,14.37,0,5.88,3.23,11.26,8.65,14.39,1.33.77,2.77,1.39,4.28,1.86,2.55,4.1,6.23,7.63,10.8,10.26.72.41,1.46.8,2.22,1.17,1.89,2.16,4.47,3.68,7.37,4.25,3.25.64,6.49.97,9.64.97,6.78,0,13.34-1.49,19.49-4.44,2.2-1.05,4.04-2.68,5.35-4.67,1.19-.87,2.32-1.8,3.37-2.79,1.62-1.52,3.04-3.16,4.27-4.9.34,4.28,1.11,7.93,2.14,11.22-.8.13-1.62.24-2.45.33-5.07.54-9.38,3.94-11.07,8.75-1.69,4.81-.46,10.16,3.15,13.75,15.28,15.17,36.51,16.77,55.24,18.18,0,0,.03,0,.04,0,5.37.4,10.93.82,16.03,1.55.38.05.76.09,1.13.11.16.08.31.17.47.25,1.9.98,3.97,1.47,6.05,1.47s4.26-.51,6.19-1.54c3.76-1.99,6.32-5.68,6.89-9.88h0c.28,0,.55,0,.84,0,49.04,0,127.17-15.47,198.28-38.98,1.84,2.82,4.72,4.87,8.07,5.64.99.23,1.98.34,2.97.34,2.87,0,5.68-.95,7.99-2.7.17-.04.34-.07.5-.12,13.08-3.56,26.02-5.37,38.45-5.37.38,0,.76,0,1.14,0,3.16.03,6.33.17,9.45.43.37.03.73.05,1.1.05,5.18,0,9.92-3.04,12.06-7.83,2.29-5.13,1.08-11.13-3-14.98Z" fill="#231f20" stroke-width="0"/>
  <g>
    <g>
      <path d="m27.41,68.95c-.15-.12-.36-.14-.53-.07l-.76.29c-.16.06-.28.19-.33.35l-1.7,5.4-3.94.54c.05-1.28.1-2.59.16-3.9l.3-6.73.19-.03c.64-.09,1.34-.17,2.07-.25h0s.32,2.91.32,2.91c.02.16.11.31.24.4.13.09.3.12.46.08l.82-.22c.24-.06.41-.27.41-.52.07-2.05.12-3.51.16-4.48.05-1,.13-2.53.24-4.55,0-.17-.06-.34-.19-.46-.13-.11-.31-.16-.48-.12l-.82.18c-.22.05-.39.22-.43.44l-.57,2.92c-.02.11-.05.18-.07.21-.77.13-1.52.25-2.22.35h0s.45-10.01.45-10.01l3.76-.52.5,4.42c.02.17.12.32.26.41.15.09.33.11.49.04l.67-.26c.19-.07.32-.24.35-.44l1.08-7.09c.02-.11,0-.23-.05-.34l-.08-.16c-.11-.22-.35-.33-.59-.3-2.12.35-4.22.67-6.22.94l-3.13.43c-1.03.14-2.12.27-3.26.37-.29.03-.5.26-.51.55v1.07c-.01.24.13.45.36.53l1.51.55s0,.08,0,.15c-.01.47-.03.99-.05,1.57-.02.57-.05,1.21-.08,1.9l-.75,16.72c-.04.84-.07,1.6-.11,2.29-.04.69-.07,1.32-.1,1.86-.01.14-.05.24-.09.27l-1.69,1.01c-.17.1-.28.29-.27.49v1.04c.02.16.09.32.22.42.1.08.23.13.36.13.03,0,.06,0,.1,0,1.11-.2,2.21-.37,3.27-.52l3.27-.45c1.95-.27,3.96-.53,5.98-.77.17-.02.33-.12.42-.27l.09-.16c.04-.07.07-.15.07-.24l.65-7.89c.02-.19-.07-.38-.22-.49Z" fill="#fff" stroke-width="0"/>
      <path d="m64.48,43.24c.02-.1,0-.2-.04-.3l-.07-.16c-.1-.24-.35-.38-.6-.33-2.03.34-3.99.64-5.85.89l-3.45.48c-1.84.26-3.8.5-5.8.72-.18.02-.35.13-.43.3l-.07.14c-.03-.06-.08-.12-.13-.16-.13-.1-.29-.15-.46-.12-1.1.21-2.02.36-2.73.46-.7.1-1.62.2-2.74.3-.28.03-.5.26-.51.55v1.11c-.02.24.14.46.37.54l1.46.49s0,.04,0,.07c-.03.98-.07,2.16-.13,3.49l-.49,10.93c0,.12-.01.23-.02.35l-7.37-16.19c-.11-.24-.37-.37-.62-.31-.71.15-1.47.29-2.26.4-.62.09-1.5.18-2.63.28-.29.03-.5.26-.51.55v1.07c-.01.24.13.45.36.53l1.51.55s0,.08,0,.15c-.02.91-.07,2.07-.13,3.47l-.75,16.72c-.07,1.64-.15,3.05-.21,4.16-.01.21-.08.25-.09.26l-1.69,1.01c-.17.1-.28.29-.27.49v1.04c.02.16.09.32.22.42.1.08.23.13.36.13.03,0,.06,0,.1,0,1.13-.2,2.06-.35,2.76-.44.72-.1,1.63-.21,2.72-.31.28-.03.5-.26.5-.55v-1.09c.01-.24-.14-.46-.37-.54l-1.44-.48s0-.1,0-.19c.03-1.07.09-2.44.16-4.08l.6-13.28c0-.12.01-.24.02-.37l8.73,19.19c.12.25.4.38.67.3l1.43-.43c.23-.07.39-.27.4-.51l1.05-23.31c.06-1.4.13-2.57.19-3.48.01-.2.06-.29.06-.29l1.72-1.05s.06-.05.09-.07l-.03,6.37c0,.19.09.36.25.46.15.1.35.13.52.05l.7-.28c.17-.07.29-.21.33-.39l1.3-5.37,2.52-.35-.89,19.83c-.08,1.68-.14,3-.21,4.04,0,.11-.03.24-.08.27l-2.02,1.2c-.17.1-.28.29-.27.49v1.04c.02.16.09.32.22.42.1.08.23.13.36.13.03,0,.06,0,.09,0,1.29-.22,2.68-.43,4.14-.64,1.38-.19,2.76-.36,4.12-.51.28-.03.5-.27.5-.55v-1.04c.01-.24-.14-.45-.37-.53l-1.82-.63s0-.06,0-.11c.03-1.06.08-2.42.16-4.04l.9-20.03,2.54-.35.49,5.1c.02.18.12.33.27.42.15.09.34.11.5.04l.7-.28c.18-.07.31-.24.34-.43l1.16-7.79Z" fill="#fff" stroke-width="0"/>
      <path d="m95.34,59.55c-.15-.12-.36-.14-.53-.07l-.76.29c-.16.06-.28.19-.33.35l-1.7,5.4-3.94.54c.05-1.3.1-2.61.16-3.9l.3-6.73.19-.03c.64-.09,1.34-.17,2.07-.25,0,0,0,0,0,.01l.32,2.89c.02.16.11.31.24.4.13.09.3.12.46.08l.82-.22c.24-.06.41-.27.41-.52.06-1.99.12-3.49.16-4.48.04-.98.12-2.47.24-4.55,0-.17-.06-.34-.19-.46-.13-.11-.31-.16-.48-.12l-.82.18c-.22.05-.39.22-.43.44l-.57,2.92c-.02.11-.05.17-.07.21-.78.13-1.53.25-2.22.35h0s.45-10.01.45-10.01l3.76-.52.5,4.42c.02.17.12.32.27.41.15.09.33.11.49.04l.67-.26c.19-.07.32-.24.35-.44l1.08-7.09c.02-.11,0-.23-.05-.34l-.08-.16c-.11-.22-.35-.34-.59-.3-2.12.35-4.21.67-6.22.94l-3.13.43c-1.04.14-2.13.27-3.26.37-.29.03-.5.26-.51.55v1.07c-.01.24.13.45.36.53l1.51.55s0,.08,0,.15c-.01.47-.03.99-.05,1.57-.02.57-.05,1.21-.08,1.9l-.75,16.72c-.04.84-.07,1.6-.11,2.29-.04.69-.07,1.32-.1,1.86-.01.14-.05.24-.09.27l-1.69,1.01c-.1.06-.18.15-.22.26-.07-.07-.16-.12-.26-.14-.18-.04-.35-.08-.49-.13-.12-.04-.23-.09-.34-.16-.1-.07-.21-.15-.3-.25-.11-.11-.22-.25-.34-.41-.23-.39-.47-.94-.73-1.65-.27-.73-.56-1.58-.9-2.6-.33-.99-.66-1.99-.99-3.01-.3-.95-.73-2.17-1.27-3.62,1.18-.87,2.13-1.98,2.8-3.29.74-1.44,1.16-3.26,1.26-5.41.11-2.46-.4-4.29-1.5-5.45-1.13-1.19-2.87-1.63-5.16-1.31-.19.03-.47.07-.81.13-.34.06-.75.14-1.25.24-.54.1-1.01.19-1.39.27-.37.07-.68.12-.92.16-1.2.17-2.38.3-3.52.4-.29.03-.5.26-.51.55v1.06c-.01.24.13.45.36.53l1.51.55s0,.08,0,.15c-.01.47-.03,1-.05,1.57-.02.57-.05,1.21-.08,1.9l-.75,16.72c-.04.84-.07,1.6-.11,2.29s-.07,1.32-.1,1.86c-.01.14-.05.24-.09.27l-1.69,1.01c-.17.1-.28.29-.27.49v1.04c.02.16.09.32.22.42.1.08.23.13.36.13.03,0,.06,0,.1,0,1.11-.19,2.4-.39,3.84-.59,1.34-.19,2.48-.32,3.37-.41.28-.03.5-.26.51-.55v-1.04c.01-.23-.12-.43-.33-.52l-1.15-.49c0-.05-.02-.14-.02-.29.02-.54.04-1.14.06-1.81.03-.66.06-1.41.09-2.25l.29-6.52h.02s0,0,0,0c.03,0,.05,0,.05,0,0,0,.02.01.03.03,0,0,.05.07.13.28.07.2.16.45.27.75.36,1.05.7,2.13,1.02,3.21.33,1.11.65,2.15.95,3.11.31.97.61,1.86.89,2.63.3.82.65,1.49,1.04,1.98.3.37.66.65,1.06.82.43.18,1.07.2,2.01.07,1.07-.15,2.05-.39,2.9-.71.15-.06.26-.18.32-.32,0,0,.01.02.02.02.1.08.23.13.36.13.03,0,.06,0,.1,0,1.12-.2,2.22-.37,3.27-.51l3.27-.45c1.95-.27,3.96-.53,5.98-.77.17-.02.33-.12.41-.27l.09-.16c.04-.07.07-.15.08-.24l.65-7.89c.02-.19-.07-.38-.22-.49Zm-20.87-10.34c-.09,2.03-.41,3.56-.96,4.56-.5.92-1.23,1.43-2.22,1.57-.16.02-.34.04-.52.06l.49-10.87c.12-.04.24-.07.34-.1.2-.05.38-.09.55-.11.87-.12,1.45.13,1.81.79.43.78.6,2.16.51,4.1Z" fill="#fff" stroke-width="0"/>
    </g>
    <path d="m130.35,143.65c-.14-.13-.33-.19-.52-.15-1.1.18-2.24.35-3.39.51-1.26.17-2.46.31-3.59.43-.29.03-.52.26-.55.54l-.09.72c-.02.17.03.33.13.46.1.13.26.21.42.23l1.28.13c-.05.09-.11.2-.2.34-.22.34-.51.75-.87,1.24l-3.34,4.77-1.98-4.17c-.17-.31-.3-.58-.38-.81-.07-.2-.07-.3-.05-.33.03-.02.13-.09.38-.17l1.65-.56c.24-.08.4-.29.42-.54l.05-.69c.01-.19-.06-.38-.2-.5-.14-.13-.33-.19-.52-.16-1.82.28-3.8.57-5.88.85-1.86.25-3.31.43-4.33.53-.29.03-.53.26-.56.56l-.07.69c-.03.34.21.64.55.68l1.4.17c.24.03.41.1.51.21.11.12.31.38.61.92l3.46,7.12-.73,3.91c-.1.54-.2,1.04-.29,1.49l-.25,1.19s-.04.03-.12.06l-2.02.77c-.23.09-.38.29-.4.54l-.05.68c-.01.19.06.38.2.5.12.11.27.17.42.17.03,0,.06,0,.1,0,1.32-.21,2.9-.43,4.68-.67,1.74-.24,3.29-.43,4.61-.58.29-.03.51-.26.55-.54l.08-.68c.04-.33-.19-.64-.53-.69l-1.53-.23c.05-.28.1-.58.15-.91.08-.45.17-.94.27-1.49l.8-4.3,6.31-8.57c.25-.33.49-.61.71-.83.18-.18.43-.34.73-.46l1.72-.65c.23-.09.38-.29.4-.54l.05-.69c.01-.19-.06-.38-.2-.51Z" fill="#fff" stroke-width="0"/>
    <g>
      <path d="m168.36,170.86c-.51-2.22-1.24-4.14-2.17-5.7-.94-1.56-2.04-2.89-3.28-3.96-1.15-.99-2.31-1.9-3.45-2.71-.98-.69-1.93-1.39-2.84-2.08-.8-.61-1.51-1.34-2.12-2.18-.59-.81-1.06-1.79-1.39-2.91-.33-1.11-.45-2.55-.37-4.27.14-2.86.88-5.29,2.18-7.23,1.22-1.81,2.56-2.79,4.09-3,.77-.11,1.47-.05,2.12.17l1.32,11.83c.06.51.35.97.8,1.23.45.26.99.3,1.47.11l1.58-.65c.53-.22.91-.7,1-1.27l2.5-15.91c.04-.27.02-.55-.08-.81l-.15-.41c-.18-.5-.59-.88-1.1-1.03-3.7-1.06-7.1-1.4-10.1-.98-4.84.66-8.91,3.23-12.1,7.63-3.11,4.29-4.85,9.75-5.17,16.24-.16,3.15.02,5.85.51,8.04.5,2.21,1.21,4.11,2.13,5.65.92,1.56,2.02,2.87,3.26,3.9,1.11.92,2.24,1.81,3.42,2.68.97.66,1.93,1.36,2.87,2.07.81.61,1.53,1.35,2.15,2.19.6.83,1.08,1.82,1.41,2.94.33,1.14.45,2.62.37,4.4-.16,3.18-.94,5.82-2.32,7.85-1.3,1.91-2.87,2.96-4.8,3.23-.99.14-1.87.02-2.67-.36l-1.31-13.76c-.05-.52-.34-.98-.79-1.25-.45-.27-.99-.31-1.47-.12l-1.78.73c-.55.22-.93.72-1.01,1.31l-2.37,17.73c-.03.26,0,.53.08.78l.15.41c.15.43.48.77.9.95,2.62,1.13,5.33,1.7,8.08,1.7.92,0,1.84-.06,2.76-.19,5.17-.71,9.48-3.35,12.81-7.86,3.25-4.4,5.08-10.12,5.42-17.01.16-3.19-.02-5.92-.52-8.12Z" fill="#fff" stroke-width="0"/>
      <path d="m208.14,189.01l-2.72-1.04c-.19-.07-.44-.21-.65-.66-.16-.34-.49-1.31-.93-3.99l-9.28-57.51c-.08-.49-.38-.92-.81-1.17-.43-.25-.95-.29-1.41-.11l-3.09,1.2c-.48.19-.85.59-.99,1.09l-17,60.95c-.48,1.67-.9,2.92-1.25,3.72-.24.56-.58.97-1.04,1.26l-3.1,1.97c-.48.3-.77.84-.76,1.4l.02,2.41c0,.48.22.94.59,1.25.3.25.67.38,1.05.38.1,0,.19,0,.29-.03,2.27-.41,4.31-.73,6.08-.97,1.7-.23,3.93-.49,6.61-.76.83-.08,1.47-.78,1.48-1.61l.04-2.52c.01-.7-.42-1.32-1.07-1.57l-2.54-.95c0-.06,0-.13,0-.22.02-.33.1-.99.41-2.25.27-1.11.64-2.58,1.12-4.4l2.18-8.31,8.92-1.22,1.16,7.31c.27,1.65.47,3,.61,4,.12.93.17,1.68.15,2.22-.02.44-.1.6-.1.6h0s-.1.14-.31.28l-2.87,1.8c-.49.3-.78.84-.77,1.41l.02,2.41c0,.48.22.94.59,1.25.37.31.86.44,1.33.36,3.23-.54,6.57-1.04,9.95-1.5,2.55-.35,5.12-.65,7.63-.9.83-.08,1.47-.78,1.48-1.61l.03-2.42c0-.69-.41-1.32-1.06-1.56Zm-19.12-21.81l-5.36.73,3.45-13.19,1.91,12.46Z" fill="#fff" stroke-width="0"/>
      <path d="m231.19,120.24c-.79.12-2.18.39-4.26.84-1.99.43-3.46.75-4.42.95-2.53.38-5.03.69-7.44.93-.8.08-1.42.75-1.43,1.55l-.04,2.47c-.01.66.39,1.26,1,1.5l2.99,1.19s0,.1,0,.16c-.04,1.1-.09,2.31-.14,3.63-.06,1.33-.13,2.8-.21,4.42l-1.93,38.79c-.1,1.94-.19,3.72-.28,5.32-.09,1.61-.18,3.05-.25,4.3-.03.33-.08.44-.08.44l-3.6,2.33c-.46.29-.73.8-.73,1.34v2.41c.01.47.23.92.59,1.22.29.24.64.36,1.01.36.1,0,.2,0,.3-.03,2.41-.46,4.89-.88,7.4-1.26,1.61-.24,2.96-.4,4.03-.47,1.14-.07,2.26-.19,3.33-.35,5.58-.84,10.05-3.45,13.29-7.76,3.18-4.22,4.97-9.8,5.3-16.58.23-4.74-.43-8.66-1.98-11.64-1.12-2.16-2.63-3.69-4.53-4.58,4.01-3.97,6.22-9.5,6.56-16.48.27-5.38-.82-9.44-3.23-12.06-2.49-2.7-6.28-3.69-11.25-2.94Zm-3.65,30.74l1.11-22.35c.13-.04.25-.07.36-.1.4-.1.74-.18,1.01-.22,1.46-.22,2.38.2,3.07,1.41.59,1.03,1.24,3.35.98,8.52-.22,4.5-.87,7.77-1.93,9.71-.93,1.71-2.24,2.67-3.98,2.94-.21.03-.42.06-.63.09Zm-.37,7.53c.38-.06.75-.13,1.14-.18,2.77-.42,3.76.75,4.31,1.82,1.01,1.93,1.4,5.24,1.17,9.83-.23,4.66-.99,8.32-2.26,10.87-1.14,2.3-2.61,3.55-4.48,3.83-.4.06-.8.1-1.18.11l1.31-26.27Z" fill="#fff" stroke-width="0"/>
      <path d="m280.57,120.49c-3.39-7.93-8.84-8.65-12.82-7.85-5.66,1.13-10.28,5.55-13.74,13.15-3.31,7.28-5.28,16.74-5.86,28.11-.56,10.97.41,19.55,2.87,25.52,2.74,6.65,6.85,8.41,10.43,8.41.83,0,1.63-.09,2.38-.24,5.7-1.14,10.34-5.72,13.79-13.61,3.3-7.56,5.27-17.15,5.85-28.53.55-10.78-.43-19.17-2.9-24.96Zm-7.62,27.88c-.53,10.52-1.62,18.44-3.22,23.56-1.45,4.63-3.34,7.21-5.61,7.67-.72.14-2.89.58-4.4-5.67-1.21-5.02-1.56-12.72-1.05-22.89.51-9.97,1.55-17.63,3.12-22.76,1.41-4.63,3.31-7.22,5.65-7.69.84-.17,3.07-.62,4.51,5.5,1.16,4.93,1.5,12.43,1,22.29Z" fill="#fff" stroke-width="0"/>
      <path d="m319.44,172.11c-.38-.08-.71-.18-.99-.28-.22-.08-.42-.18-.6-.3-.19-.13-.39-.31-.57-.52-.21-.25-.44-.55-.68-.9-.47-.89-.98-2.16-1.5-3.76-.57-1.75-1.21-3.78-1.89-6.03-.69-2.29-1.38-4.62-2.06-6.99-.62-2.16-1.49-4.93-2.6-8.22,2.52-2.04,4.54-4.6,6.01-7.63,1.63-3.36,2.58-7.62,2.83-12.65.29-5.77-.79-10.1-3.21-12.87-2.52-2.89-6.39-3.97-11.52-3.21-.42.06-1.01.17-1.75.31-.73.14-1.63.32-2.69.55-1.18.24-2.17.44-2.99.61-.78.16-1.44.29-1.96.36-2.57.38-5.1.7-7.53.93-.83.08-1.47.77-1.49,1.61l-.04,2.47c-.01.69.4,1.31,1.04,1.56l2.98,1.18s0,.07,0,.11c-.04,1.1-.08,2.31-.14,3.63-.06,1.33-.13,2.8-.21,4.42l-1.93,38.79c-.1,1.94-.19,3.72-.28,5.32-.09,1.6-.17,3.05-.25,4.3-.02.25-.07.37-.09.42l-3.6,2.3c-.48.3-.76.83-.76,1.4v2.41c.01.49.23.95.61,1.26.3.25.67.38,1.05.38.1,0,.2,0,.31-.03,2.38-.45,5.15-.91,8.23-1.37,2.87-.43,5.29-.74,7.22-.93.83-.08,1.47-.77,1.48-1.61l.04-2.42c.01-.65-.36-1.25-.95-1.52l-2.24-1.04c0-.11-.01-.26,0-.46.05-1.26.1-2.65.17-4.19.07-1.54.15-3.28.25-5.22l.67-13.38c.07.23.16.49.24.75.74,2.41,1.46,4.92,2.13,7.44.68,2.57,1.35,5,1.98,7.22.65,2.28,1.28,4.34,1.87,6.12.65,1.96,1.38,3.5,2.25,4.7.68.92,1.5,1.61,2.43,2.04,1.01.46,2.48.53,4.62.21,2.34-.35,4.48-.91,6.36-1.67.62-.25,1.02-.85,1.03-1.51l.02-2.47c0-.78-.53-1.45-1.29-1.62Zm-14.04-44.16c-.23,4.67-.94,8.19-2.11,10.46-1.04,2.01-2.5,3.13-4.47,3.43-.18.03-.37.05-.56.07l1.22-24.56c.16-.05.31-.1.45-.14.41-.12.79-.2,1.11-.25,1.67-.25,2.68.23,3.37,1.61.61,1.21,1.27,3.82,1,9.37Z" fill="#fff" stroke-width="0"/>
      <path d="m354.85,151.75c-.45-.34-1.05-.42-1.58-.22l-1.75.67c-.47.18-.83.56-.98,1.04l-3.88,12.29-8.34,1.14c.11-2.83.25-5.72.39-8.62l.75-15.33.15-.02c1.36-.19,2.84-.36,4.36-.53l.67,6.4c.05.48.31.91.7,1.18.4.27.89.36,1.36.24l1.88-.5c.7-.19,1.2-.81,1.22-1.53.18-4.74.32-8.14.43-10.38.11-2.31.31-5.76.61-10.55.03-.51-.18-1.01-.57-1.35-.39-.34-.91-.47-1.42-.36l-1.87.4c-.64.14-1.14.64-1.27,1.29l-1.34,6.77c-.02.1-.05.18-.07.24-1.57.27-3.06.5-4.44.69l1.11-22.49,7.91-1.08,1.05,9.89c.05.51.34.96.78,1.23.44.27.98.31,1.45.13l1.55-.6c.55-.21.94-.7,1.03-1.28l2.55-16.45c.05-.33,0-.68-.15-.98l-.18-.36c-.32-.65-1.03-1.01-1.74-.9-4.84.79-9.62,1.51-14.23,2.14l-7.16.98c-2.35.32-4.85.6-7.44.82-.84.07-1.49.77-1.5,1.61l-.04,2.47c-.01.7.42,1.32,1.07,1.57l3.23,1.21s0,.06,0,.09c-.04,1.1-.08,2.3-.14,3.63-.06,1.33-.12,2.8-.2,4.42l-1.91,38.79c-.09,1.94-.19,3.72-.28,5.32-.09,1.6-.17,3.05-.25,4.29-.03.26-.08.37-.06.37l-3.86,2.31c-.5.3-.81.84-.8,1.43l.02,2.41c0,.48.22.94.59,1.25.3.25.67.38,1.05.38.09,0,.19,0,.28-.02,2.55-.44,5.06-.84,7.48-1.16l7.5-1.02c4.44-.61,9.04-1.19,13.68-1.73.51-.06.97-.36,1.23-.8l.22-.37c.12-.21.2-.45.22-.69l1.58-18.29c.05-.57-.2-1.12-.65-1.46Z" fill="#fff" stroke-width="0"/>
      <path d="m372.13,107.27c1.22-1.81,2.56-2.79,4.09-3,.77-.11,1.47-.05,2.12.17l1.32,11.82c.06.51.35.97.8,1.23s.99.3,1.47.11l1.58-.65c.53-.22.91-.7,1-1.27l2.5-15.91c.04-.27.02-.55-.08-.81l-.15-.41c-.18-.5-.59-.88-1.09-1.02-3.7-1.07-7.1-1.4-10.1-.99-4.84.66-8.91,3.23-12.11,7.63-3.11,4.29-4.85,9.75-5.17,16.25-.15,3.15.02,5.86.51,8.04.5,2.21,1.21,4.11,2.13,5.65.92,1.56,2.02,2.87,3.25,3.9,1.09.91,2.23,1.8,3.42,2.68.97.67,1.94,1.37,2.87,2.07.8.61,1.53,1.35,2.15,2.19.6.83,1.08,1.82,1.41,2.94.33,1.14.45,2.62.37,4.4-.16,3.18-.94,5.82-2.32,7.85-1.3,1.91-2.87,2.96-4.8,3.23-.99.14-1.87.02-2.67-.36l-1.31-13.76c-.05-.52-.34-.98-.79-1.25-.45-.27-.99-.31-1.48-.12l-1.78.73c-.55.22-.93.72-1.01,1.31l-2.36,17.73c-.03.26,0,.53.08.77l.15.41c.15.43.48.78.9.96,2.62,1.13,5.33,1.7,8.08,1.7.92,0,1.84-.06,2.76-.19,5.17-.71,9.48-3.35,12.81-7.86,3.25-4.4,5.08-10.13,5.42-17.01.16-3.18-.02-5.91-.52-8.12-.51-2.22-1.24-4.14-2.17-5.69-.93-1.56-2.04-2.89-3.28-3.97-1.16-1-2.32-1.91-3.45-2.71-.98-.69-1.94-1.39-2.84-2.08-.8-.61-1.51-1.34-2.11-2.18-.59-.81-1.05-1.79-1.38-2.91-.33-1.11-.46-2.55-.37-4.27.14-2.86.88-5.29,2.18-7.23Z" fill="#fff" stroke-width="0"/>
    </g>
    <g>
      <path d="m87.94,84.87c-3.29-4.56-8.08-6.43-14.24-5.58-6.29.88-11.34,4.22-14.99,9.94-3.59,5.61-5.5,12.88-5.67,21.61-.17,8.42,1.35,14.99,4.51,19.54,2.78,4,6.65,6.01,11.51,6.01.88,0,1.79-.07,2.73-.2,6.33-.88,11.39-4.35,15.04-10.29,3.57-5.82,5.47-13.2,5.65-21.92.17-8.27-1.36-14.7-4.53-19.11Zm-6.98,19.84l-.04,1.86c-.02.87-.03,1.71-.05,2.52-.12,6.83-.21,11.77-1.65,15.19-1.56,3.7-3.8,5.7-6.83,6.13-2.95.41-5.11-1.08-6.6-4.56-1.42-3.29-1.28-9.14-1.12-15.91.02-.86.04-1.73.06-2.62.03-1.27.04-2.47.05-3.59.07-5.64.12-9.36,1.42-12.56,1.52-3.7,3.77-5.71,6.88-6.14.37-.05.72-.08,1.07-.08,2.56,0,4.38,1.45,5.66,4.5,1.41,3.35,1.3,8.6,1.15,15.25Z" fill="#fff" stroke-width="0"/>
      <path d="m151.25,106.55c-.24-.18-.55-.23-.84-.14l-1.6.54c-.22.07-.4.23-.51.44l-3.5,6.71-8.73,1.15c0-.4,0-.64,0-.84,0-.47,0-.71.03-2.31l.59-29.39s0,0,0,0c0-.06.01-.45.03-1.19l.03-1.2c.04-1.65.08-2.92.11-3.77.03-.38.15-.44.2-.46.01,0,.03-.01.04-.02l3.27-1.8c.3-.17.48-.49.46-.83l-.09-1.88c-.01-.26-.14-.5-.34-.66-.2-.16-.46-.23-.72-.18-2.19.39-4.84.78-7.86,1.18-2.94.39-5.55.68-7.74.87-.47.04-.83.44-.82.92l.04,1.88c0,.38.26.72.63.84l3.15,1.01s.03.14.04.3c0,.84,0,1.76-.02,2.77-.01,1.01-.03,2.14-.05,3.37l-.59,29.61c-.03,1.48-.06,2.84-.09,4.06-.03,1.22-.07,2.32-.1,3.3-.03.39-.17.46-.26.51l-3.27,1.8c-.3.17-.48.49-.46.83l.09,1.84c.01.26.13.49.33.65.16.13.36.2.56.2.05,0,.1,0,.15-.01,2.19-.36,4.61-.72,7.19-1.05l6.48-.85c4.07-.53,8.31-1.05,12.6-1.54.26-.03.5-.18.65-.4l.19-.28c.09-.13.14-.28.15-.44l.95-14.76c.02-.3-.11-.59-.35-.77Z" fill="#fff" stroke-width="0"/>
      <path d="m120.85,111.34c-.24-.18-.55-.23-.84-.14l-1.6.54c-.22.07-.4.23-.51.44l-3.5,6.71-8.73,1.15c0-.4,0-.64,0-.85,0-.47,0-.71.03-2.31l.59-29.39s0,0,0,0c0-.06.01-.48.03-1.26l.03-1.13c.04-1.65.08-2.92.11-3.77.03-.38.15-.44.2-.46.01,0,.03-.01.04-.02l3.27-1.8c.3-.17.48-.49.46-.83l-.09-1.88c-.01-.26-.14-.5-.34-.66-.2-.16-.46-.23-.72-.18-2.19.39-4.84.78-7.86,1.18-2.94.39-5.55.68-7.75.87-.47.04-.83.44-.82.92l.04,1.88c0,.38.26.72.63.84l3.15,1.01s.03.14.03.3c0,.84,0,1.76-.02,2.77-.01,1.01-.03,2.14-.05,3.37l-.59,29.61c-.03,1.48-.06,2.84-.09,4.06-.03,1.22-.07,2.32-.1,3.3-.03.39-.17.46-.26.51l-3.27,1.8c-.3.17-.48.49-.46.83l.09,1.84c.01.26.13.49.33.65.16.13.36.2.56.2.05,0,.1,0,.15-.01,2.18-.36,4.6-.71,7.18-1.05l6.48-.85c4.09-.54,8.33-1.06,12.6-1.54.26-.03.5-.18.65-.4l.19-.28c.09-.13.14-.28.15-.44l.95-14.76c.02-.3-.11-.59-.35-.77Z" fill="#fff" stroke-width="0"/>
      <path d="m187.67,113.45l-2.26-.74s-.01,0-.02,0c-.23-.07-.38-.2-.5-.43-.11-.2-.41-.88-.84-2.96l-9.12-43.66c-.09-.41-.35-.77-.72-.97-.21-.12-.45-.18-.69-.18-.17,0-.35.03-.52.1l-2.53.97c-.43.17-.75.53-.87.97l-12.56,46.81c-.35,1.26-.66,2.21-.92,2.82-.17.4-.42.69-.76.89l-2.54,1.57c-.44.27-.7.76-.68,1.28l.08,1.84c.02.42.22.81.54,1.07.26.2.57.31.89.31.09,0,.18,0,.27-.02,1.88-.36,3.57-.65,5.02-.86,1.4-.21,3.24-.45,5.46-.71.73-.09,1.28-.71,1.27-1.45l-.03-1.92c0-.62-.41-1.16-1-1.35l-2.05-.65s0,0,0,0c0-.23.06-.71.27-1.66.19-.84.47-1.98.82-3.37l1.57-6.27,7.28-1.09,1.12,5.42c.27,1.29.47,2.28.6,3.04.15.85.18,1.36.17,1.63,0,.2-.03.31-.04.34-.02.02-.07.08-.2.16l-2.32,1.42c-.45.27-.71.77-.69,1.29l.08,1.84c.02.41.21.8.54,1.06.26.21.58.32.9.32.08,0,.17,0,.25-.02,2.62-.47,5.38-.92,8.2-1.34,2.11-.32,4.23-.6,6.3-.84.74-.08,1.29-.71,1.27-1.45l-.03-1.85c-.01-.61-.41-1.15-.99-1.34Zm-16.5-16.23l-4.17.63,2.39-9.56,1.78,8.94Z" fill="#fff" stroke-width="0"/>
      <path d="m215.18,91.91c-.57-1.56-1.34-2.89-2.29-3.96-.93-1.05-2.01-1.94-3.2-2.65-1.11-.66-2.24-1.27-3.35-1.81-1.01-.49-1.93-.95-2.8-1.41-.82-.43-1.56-.95-2.19-1.55-.6-.57-1.09-1.25-1.44-2.02-.35-.75-.52-1.73-.5-2.91.02-1.99.61-3.63,1.78-5.02,1.16-1.37,2.51-2.13,4.14-2.33.95-.12,1.84-.06,2.66.16l1.72,8.3c.06.3.25.56.51.71.27.15.58.19.87.09l1.48-.49c.38-.13.66-.46.73-.85l1.77-11.19c.04-.24,0-.48-.12-.69l-.16-.29c-.15-.28-.43-.48-.74-.54-3.46-.65-6.6-.82-9.34-.48-4.4.54-8.06,2.37-10.86,5.44-2.81,3.07-4.26,6.96-4.32,11.56-.03,2.23.24,4.15.8,5.69.56,1.55,1.32,2.87,2.25,3.93.92,1.05,1.98,1.93,3.16,2.6,1.09.63,2.2,1.22,3.32,1.79,1,.47,1.95.94,2.84,1.41.83.43,1.58.96,2.23,1.56.62.58,1.1,1.25,1.47,2.04.35.77.52,1.78.5,3-.03,2.22-.64,4-1.89,5.45-1.23,1.44-2.81,2.26-4.82,2.5-1.18.14-2.23.04-3.19-.31l-1.78-9.62c-.06-.3-.24-.57-.51-.73-.27-.16-.59-.19-.88-.1l-1.67.54c-.4.13-.68.47-.73.89l-1.57,12.46c-.03.22.01.45.12.65l.16.29c.14.25.37.44.64.52,2.28.67,4.6,1,6.95,1,1.01,0,2.01-.06,3.02-.18,4.72-.58,8.6-2.46,11.53-5.61,2.94-3.16,4.46-7.23,4.52-12.11.03-2.26-.25-4.19-.82-5.74Z" fill="#fff" stroke-width="0"/>
    </g>
    <g>
      <g>
        <path d="m139.64,40.52c-12.32-9.84-25.11-5-25.23-4.95l-.07,1.1c.77-.49,2.17-.78,2.58-.89,2.83-.52,5.76-.54,8.59-.03-2.79.07-5.63.41-8.32,1.12-.87.24-1.74.54-2.45.97-.15.09-.32.11-.47.07l-.05.84c.57-.31,1.16-.58,1.77-.79,2.15-.76,4.62-1.05,6.8-.27-1.48-.13-2.95.1-4.36.54-1.39.43-2.69,1.06-3.96,1.75-.1.06-.22.09-.33.08l-.04.69c.59-.32,1.2-.61,1.84-.83,2.15-.76,4.62-1.05,6.8-.27-1.48-.13-2.95.1-4.36.54-1.39.43-2.69,1.06-3.96,1.75-.12.07-.27.09-.4.07l-.08,1.3c13.37-4.22,23.86,5.19,23.86,5.19" fill="#fff" stroke-width="0"/>
        <g>
          <path d="m123.46,27.47c-.51-.55-.97-1.15-1.36-1.77-.21.44-.45.85-.73,1.25l-.79,6.13c1.21-.1,2.56-.12,4.01-.02l.58-4.1c-.6-.41-1.17-.9-1.71-1.49Z" fill="#fff" stroke-width="0"/>
          <path d="m126.28,29.6l-.5,3.56c1.51.18,3.13.5,4.8,1.02l.65-3.78c-1.69.18-3.39-.05-4.95-.8Z" fill="#fff" stroke-width="0"/>
          <path d="m132.48,30.19l-.75,4.37c1.19.43,2.4.96,3.63,1.62l2.05-8.37c-1.47,1.15-3.17,1.98-4.93,2.38Z" fill="#fff" stroke-width="0"/>
          <path d="m145.17,20.19c-1.7-.84-3.53-1.14-5.3-.96-1.1-2.02-2.81-3.74-5.03-4.83-4.38-2.16-9.47-1.28-12.87,1.84-.22-.13-.45-.26-.69-.37-4.86-2.4-10.74-.4-13.13,4.46-2.4,4.86-.4,10.74,4.46,13.13.61.3,1.24.53,1.88.7v.19c.58-.22,2.34-.82,4.87-1.14l.6-4.67c-.38.33-.8.64-1.24.89-2.13,1.24-5.2,1.17-6.94-.67,4.35,1.15,7.03-.82,10.01-3.57-.48-.85-.87-1.74-1.15-2.66,1.13,1.51,2.3,2.93,3.66,4.07,4.42,3.96,10.06,2.44,14.75-.31-.35.38-.72.74-1.1,1.08.83,4.63,1.81,6.81,7.02,6.82-1.87,1.23-4.7,1.15-6.27-.66-.46-.54-.79-1.14-1.01-1.77l-1.23,5.02c1.16.68,2.33,1.48,3.5,2.41l.06-.27c3.89.31,7.79-1.89,9.62-5.6,2.4-4.86.4-10.74-4.46-13.13Z" fill="#fff" stroke-width="0"/>
        </g>
      </g>
      <path d="m137.83,52.71c-.14-1.23-1.02-2.26-2.48-2.35-.45-.03-.87.07-1.23.36-.62.5-.65,1.64-.39,2.18.2.41.75.6,1.17.39-.25-.25-.3-.55-.19-.86.11-.32.45-.45.72-.24.16.13.32.3.39.49.32.88-.41,1.97-1.51,1.81-.48-.07-.9-.26-1.29-.52-.9-.58-1.47-1.44-2.08-2.27-.58-.79-1.13-1.6-2.01-2.12-1.09-.64-2.61-.74-3.63.2-.27.25-.5.55-.76.84-.02-.05-.05-.12-.06-.18-.47-1.5-1.74-2.24-3.29-2.1-.82.07-1.51.43-2.14.9-.71.52-1.39,1.07-2.11,1.58-.65.47-1.38.8-2.2.88-.88.09-1.52-.25-1.74-.99-.17-.55.02-1.3.62-1.53.34-.13.64.02.7.37.05.36-.13.63-.44.84.57.3,1.01.26,1.3-.15.36-.5.49-1.07.36-1.67-.19-.88-1.11-1.25-1.97-1.22-1.08.05-1.83.61-2.3,1.55-.43.87-.52,1.79-.43,2.74.23,2.24,1.7,3.57,3.84,3.95.74.13,1.49.17,2.24.21.95.05,1.86-.12,2.72-.49.49-.21.97-.44,1.47-.62,1.15-.43,2.31-.37,3.51-.14,1.16.23,2.1.79,2.96,1.56.37.33.78.64,1.21.88,1.49.85,3.14,1.15,4.84,1.13.98-.01,1.89-.32,2.61-.97,1.32-1.2,1.81-2.72,1.61-4.44Zm-26.01-1.93c.01.16-.12.31-.29.3-.15,0-.27-.14-.26-.29.02-.37.06-.74.15-1.11.16-.72.61-1.47,1.34-1.72.35-.13.72-.16,1.08-.15.02,0,.02.03,0,.03-1.7.08-2.16,1.45-2.01,2.94Zm10.77,2.14c-.1.07-.23.03-.29-.06-.76-.91-2.09-.67-2.96.03-.47.38-.98.73-1.54.95-.55.21-1.22.39-1.79.2.58.11,1.22.01,1.76-.25,1.39-.54,2.39-2.56,4.1-1.83.25.1,1.08.66.72.95Zm1.2-1.63c-.36.26-.75-.14-1.05-.3-.41-.21-.86-.35-1.32-.39-.55-.05-1.1.02-1.61.21-.62.23-1.13.67-1.67,1.03-.59.39-1.2.76-1.86,1.02-.77.3-1.63.43-2.42.21-.33-.09-.65-.25-.87-.51-.27-.31-.36-.74-.33-1.15-.03.53.28,1.04.73,1.32.44.28,1,.36,1.52.29,1.63-.21,2.91-1.53,4.2-2.44.67-.47,1.49-.81,2.31-.83.62-.02,1.23.15,1.75.48.13.08.26.17.38.27.11.09.24.19.33.31.02.03.04.06.05.1.05.13.01.28-.12.37Zm8.49,5.26c-.31-.01-.6-.11-.87-.24-.83-.39-1.46-1.11-1.96-1.86-.63-.93-1.84-1.55-2.84-.88-.22.14-.45-.18-.25-.35,1.31-.99,2.55-.08,3.2,1.15.59,1,1.48,2.04,2.71,2.15.02,0,.02.03,0,.03Zm1.43-.62c-.97-.17-1.86-.69-2.55-1.39-.6-.61-1.06-1.34-1.64-1.97-.89-.97-2.26-1.42-3.54-1.09-.17.04-.35.1-.53.1s-.37-.09-.45-.25c-.06-.12-.03-.22.04-.31.21-.27.86-.42,1.08-.47.56-.12,1.15-.09,1.69.09,1.01.34,1.76,1.18,2.39,2.04.63.86,1.2,1.78,2.04,2.44.53.42,1.19.73,1.87.73.35,0,.71-.08,1-.28.29-.19.51-.5.56-.85-.13.92-1.11,1.35-1.96,1.21Zm3.28-1.5c-.16-.02-.27-.19-.23-.35.43-1.43.23-2.87-1.42-3.26-.02,0-.01-.03,0-.03.35.05.71.15,1.03.34.67.38.97,1.2.99,1.94.02.38-.01.75-.06,1.12-.02.15-.16.26-.31.23Z" fill="#fff" stroke-width="0"/>
    </g>
    <g>
      <path d="m320.58,73.64c1.9.43,3.88.51,5.78.54,3.63.05,7.31-.35,10.82.26,1.42.28,2.47.64,3.52,1.44.96.75,1.79,1.87,1.82,3.09.03.76-.26,1.52-.75,2.11-1.27,1.63-3.09,2.7-4.94,3.59-1.19.57-2.5,1.07-3.71,1.59-.06.02-.05.11.01.12,1.7.35,3.47.52,5.23.43,1.3-.07,2.61-.3,3.85-.71.18-.07.66-.25.83-.31.45-.2.93-.42,1.35-.68,3.36-1.88,4.93-5.56,4.17-9.31-.75-3.73-3.61-6.81-7.03-8.34-6.03-2.72-12.86-1.54-19.14-1.4-1.27.06-2.63-.35-3.42-1.39-.41-.54-.62-1.2-.7-1.87-.29-2.36,1.09-4.82,3.43-5.75.05-.02.05-.09,0-.11-1.43-.56-3.15-.28-4.51.47-1.91,1.03-3.28,2.91-3.86,5.01-.82,2.91,0,6.05,2.09,8.27,1.37,1.48,3.2,2.49,5.15,2.96Z" fill="#fff" stroke-width="0"/>
      <path d="m349.83,75.63c.04.29.07.58.09.87,5.6.62,9.23,2.02,9.44,3.99.39,3.65-11.16,7.87-25.79,9.44s-26.82-.12-27.21-3.77,11.16-7.87,25.79-9.44c2.41-.26,4.75-.43,6.99-.51-.5-.31-1.11-.55-1.85-.74-.07-.02-.15-.03-.23-.05-1.92.12-3.51.29-4.54.46-8.94,1.5-18.75,2.85-23.5,6.11-7.49-3.96-14.89-6.46-22.14-6.5-.42,0-.97.09-1.29.38-.31.28-.27.71-.18,1.08.1.41.27.82.6,1.11.23.21.53.34.83.42.73.2,1.5.21,2.25.32.48.07,1.36.25,1.45.84.05.35.35.59.67.7.34.11.7.15,1.05.2.36.05.72.12,1.08.19,1.65.33,3.29.79,4.86,1.38.29.11.58.23.87.35,1.07.45,2.11.99,3.08,1.64.89.6,1.72,1.29,2.45,2.08.7.77,1.3,1.63,1.76,2.56.04.09.09.18.13.27.2.78.45,1.52.76,2.2,0,0,0,0,0,0h0c3.45,7.64,13.71,9.34,27.67,7.39,14.24-1.99,24.8-5.8,25.74-16.88.31-3.69-4.8-5.4-10.84-6.08Zm10.08,6.91c.23,3.72-11.25,7.98-25.78,9.53s-26.83-.2-27.23-3.94c0-.03,0-.05,0-.08,2.16,3.1,13.49,4.45,26.86,3.02,14.53-1.56,26.01-5.81,25.78-9.53.2.29.33.6.36.92,0,.03,0,.05,0,.08Z" fill="#fff" stroke-width="0"/>
    </g>
    <g>
      <g>
        <path d="m259.86,47.95c-5.27-2.14-11.27.39-13.41,5.66-1.44,3.54-1.29,17.38-2.57,25.48l5.72,2.33c4.73-6.7,14.49-16.51,15.93-20.05,2.14-5.27-.39-11.27-5.66-13.41Zm-3.03.47c-9.89,4.37-8.04,17.11-11.5,29.56,1.62-17.05-1-30.25,11.5-29.56Zm1.3.53c-4.89,2.61-7.4,14.67-11.98,29.37,3.57-20.78,4.31-27.18,11.98-29.37Zm.9.37c3.53,4.44-11.86,29.42-11.86,29.42,3.66-13.56,8.01-27.99,11.86-29.42Zm1.37.56c3.97,6.92.04,12.02-11.9,29.4,6.96-13.72,13.58-24.12,11.9-29.4Zm-11.08,29.73c6.2-11.33,16.41-19.18,12.38-29.2,9.44,8.22-1.65,15.86-12.38,29.2Z" fill="#fff" stroke-width="0"/>
        <path d="m246.28,81.36l-2.81-1.14-1.58,3.89-6.84,16.84c-.63,1.55.12,3.33,1.67,3.96,1.55.63,3.33-.12,3.96-1.67l6.84-16.84,1.58-3.89-2.81-1.14Zm-2.55-.53l1.94.79-1.23,3.02-1.94-.79,1.23-3.02Zm-3.49,22.23c-.47,1.16-1.7,1.79-2.89,1.55l7.61-18.74,1.94.79-6.66,16.4Z" fill="#fff" stroke-width="0"/>
      </g>
      <g>
        <polygon points="235.92 82.56 232.58 82.51 232.49 85.02 235.95 85.07 235.92 82.56" fill="#fff" stroke-width="0"/>
        <path d="m240.97,45.61l-12.42-.17c-.8-.01-1.47.63-1.48,1.44l-.17,12.37c-.03,2.28-.05,3.96-.05,3.96l5.97,4.25-.19,13.86v.04s3.28.05,3.28.05v-.04s.19-13.89.19-13.89l6.08-4.06.23-16.33c.01-.81-.63-1.47-1.43-1.48Zm-10.28,16c0,.5-.42.91-.93.9h0c-.5,0-.91-.42-.9-.93l.18-12.82c0-.5.42-.91.93-.9h0c.5,0,.91.42.9.93l-.18,12.82Zm3.17.04c0,.5-.42.91-.93.9s-.91-.42-.9-.93l.18-12.82c0-.5.42-.91.93-.9s.91.42.9.93l-.18,12.82Zm3.17.04c0,.5-.42.91-.93.9s-.91-.42-.9-.93l.18-12.82c0-.5.42-.91.93-.9s.91.42.9.93l-.18,12.82Zm3.17.04c0,.5-.42.91-.93.9s-.91-.42-.9-.93l.18-12.82c0-.5.42-.91.93-.9s.91.42.9.93l-.18,12.82Z" fill="#fff" stroke-width="0"/>
        <path d="m235.96,86.23l-3.51-.05-.09,2.61c-.73,3.5-.95,10.32-.75,12.48.13,1.35,1.07,2.47,2.42,2.49s2.37-1.07,2.49-2.42c.21-2.43.1-9.43-.54-12.85l-.02-2.26Zm-.92,13.3c0,.51-.43.92-.94.91h-.08c-.51,0-.92-.43-.91-.94l.04-2.54c0-.51.43-.92.94-.91h.08c.51,0,.92.43.91.94l-.04,2.54Z" fill="#fff" stroke-width="0"/>
      </g>
      <g>
        <path d="m281.09,58.5c-3.1-2.69-8.8-1.19-12.74,3.35-3.37,3.89-4.34,8.74-2.61,11.74l-12.03,13.88,2.59,2.24,12.03-13.88c3.22,1.29,7.88-.36,11.25-4.25,3.93-4.54,4.61-10.39,1.5-13.08Zm-13.58,15.66c-.1-.09-.19-.18-.28-.27,2.87,2.1,7.8.69,11.24-3.28s4.13-9.05,1.65-11.59c.1.08.21.16.31.24s.19.18.29.27c2.48,2.54,1.79,7.63-1.65,11.59-3.57,4.11-8.74,5.47-11.55,3.03Z" fill="#fff" stroke-width="0"/>
        <path d="m255.04,90.81l-2.23-1.93c-.41-.36-1.04-.31-1.4.1l-13.57,15.66c.48,1.75,1.72,2.83,3.73,3.23l13.57-15.66c.36-.41.31-1.04-.1-1.4Zm-14.42,14.39c-.45-.39-.5-1.07-.11-1.52s1.07-.5,1.52-.11.5,1.07.11,1.52-1.07.5-1.52.11Z" fill="#fff" stroke-width="0"/>
      </g>
    </g>
    <g>
      <path d="m82.19,190.69c.88-.1,1.73-.18,2.52-.24-2.51-.22-7.1-.03-12.3.58-1.47.17-2.88.36-4.2.57-5.72.88-9.82,2.01-9.73,2.77.11.94,6.52.96,14.32.05,5.2-.6,9.71-1.47,12.1-2.26-.78.12-1.63.24-2.51.34-4.17.48-7.59.47-7.65-.03s3.27-1.3,7.44-1.78Z" fill="#fff" stroke-width="0"/>
      <path d="m105.93,190.19c-.52-2.21-3.78-3.27-7.42-2.41-.38.09-.76.2-1.12.33-1.9-2.08-7.29-3.23-14.3-3.21.04-.34.07-.68.09-1.02.08-1.44-.13-3.11-1.37-4.03-1.91-1.37-4.62-.81-6.79-.65-2.05.18-5.76-.56-4.89-3.35,1.18-3.57,6.38-4.66,9.58-5.78,3.64-1.3,8.65-3.46,10.06-7.37.63-1.81.36-3.95-1.13-5.25-1.3-1.19-3.08-1.79-4.46-2.7-.95-.62-1.79-1.46-1.96-2.61-.2-1.42.28-3.1,1.57-3.87.05-.03.07-.09.05-.15-.03-.05-.09-.08-.15-.05-.32.16-.61.38-.86.64-1.18,1.33-1.53,3.52-.55,5.06,1.6,2.59,5.78,2.9,6.68,5.86.99,4.55-4.28,7.1-7.77,8.54-3.69,1.57-8.5,2.34-11.11,5.65-2.4,3.43-.4,5.92,3.39,6.28.7.08,1.44.04,2.15-.05,1.33-.14,2.68-.33,4-.19,2.38.26,3,1.82,3.05,4.01.01.34.01.68,0,1.03-.61,0-1.23.02-1.86.04-.28-1.15-.86-2.18-1.95-2.8-1.68-.9-3.73-.63-5.51-.24-2.86.59-7.57,2.45-9.89-.03-1.71-2.01-1.08-4.97-.04-7.17.38-.79.83-1.52,1.37-2.19.19-.24.44-.51.62-.75,1.54-1.74,3.6-2.87,5.69-3.88,2.43-1.14,5.01-2.04,7.44-3.22,1.9-.87,3.73-2.11,4.73-4,.39-.76.61-1.61.57-2.47-.02-.12-.04-.44-.06-.55-.09-.46-.33-.89-.66-1.22-1.4-1.41-3.83-1.6-4.92-3.3-.15-.25-.25-.52-.28-.82-.93-5.68,8.44-8.71,12.64-10.17.01,0,.02-.02.02-.03,0-.01-.02-.02-.03-.02-.87.24-1.74.48-2.6.75-3.54,1.13-8.41,2.95-10.23,6.43-.43.86-.63,1.84-.55,2.8.02.2.04.31.07.54.23,1.33,1.43,2.17,2.53,2.77.8.41,1.63.72,2.35,1.22.46.32.82.68.93,1.2.01.07.04.39.05.46v.31c0,.62-.2,1.23-.47,1.78-.9,1.76-2.64,2.89-4.39,3.7-2.44,1.16-4.98,2.04-7.46,3.17-2.3,1.01-4.51,2.38-6.29,4.19-.79.86-1.43,1.87-1.93,2.92-1.18,2.51-1.75,5.89.24,8.16,2.09,2.23,5.49,1.5,8.1.85,2.31-.58,4.72-1.55,7.1-.87,1.26.38,1.95,1.36,2.34,2.52-.79.03-1.6.08-2.41.15-1.28-.94-3.24-.93-5.05-.71-2.12.27-4.07,1.21-6.15,1.61-3.05.64-7.13-.51-8.94-3.15-1.23-1.83-1.2-4.23-.54-6.27l.24-.73c.1-.24.33-.84.44-1.07.08-.17.26-.52.34-.69.11-.24.43-.77.57-1.01,1.23-1.99,2.9-3.71,4.76-5.12,1.67-1.27,3.5-2.33,5.41-3.22.05-.02.08-.09.06-.14-.02-.06-.09-.08-.14-.06-2.21.9-4.36,2.05-6.26,3.5-1.71,1.29-3.26,2.85-4.45,4.64-.15.25-.52.79-.64,1.04-.1.18-.29.54-.39.72-.12.25-.39.86-.5,1.12l-.28.77c-.83,2.28-.83,5.03.58,7.09,1.84,2.65,5.57,3.92,8.79,3.6-2,.49-3.86,1.05-5.51,1.67-2.73,1.03-6.09,2.67-7.07,4.79-.64-.12-1.32-.19-2.01-.19-1.73,0-3.37.39-4.61,1.11-1.32.76-2.05,1.81-2.06,2.94s.73,2.18,2.05,2.94c1.24.72,2.88,1.11,4.61,1.11.43,0,.86-.02,1.29-.07.36-.04.71-.1,1.04-.18.55,4.56,3.43,8.55,8.12,11.24,1.5.86,3.13,1.56,4.86,2.08l.71,1.83c7.11,1.4,14.08.82,20.88-2.43l.43-1.65c1.84-.99,3.51-2.18,4.96-3.54,3.93-3.68,5.82-8.21,5.33-12.76.11,0,.21-.02.32-.03.42-.05.85-.12,1.27-.22h0c1.69-.4,3.19-1.16,4.23-2.14,1.11-1.05,1.58-2.23,1.32-3.34Zm-54.74,9.05c-1.31.12-2.95.06-4.03-.82-.89-.74-.54-1.99.4-2.48,0,0,.11.09.11.09-.11.44-.3.93-.19,1.32.27.75,1.49,1.03,2.21,1.28.49.15,1,.29,1.51.46v.14Zm20.27-13.83c1.47-.44,3.06-.65,4.58-.46.37.05.7.13.99.23-.75.07-1.51.14-2.28.23-2.19.25-4.33.6-6.37,1.01,1.04-.33,2.05-.72,3.09-1.02Zm-16.29,16.01c2.5,5.3,6.8,9.37,13.31,11.92-7.05-1.65-12.36-6.12-13.31-11.92Zm.41-5.54c-.09-.06-.18-.13-.26-.19l-.07-.06c-.32-.28-.49-.56-.53-.83-.01-.13,0-.25.04-.39.74-2.42,8.67-5.85,20.18-7.19,1.31-.15,2.57-.27,3.79-.35.3.71.44,1.58.56,2.5,0,.02.04.02.04,0,.01-.53,0-1.06-.06-1.6-.03-.34-.1-.65-.18-.92.54-.03,1.08-.06,1.6-.08.07.58.1,1.15.12,1.68.02.45.02.9.03,1.35,0,.01,0,.02.02.02.01,0,.02,0,.02-.02.05-.45.08-.9.11-1.35.03-.54.05-1.11.02-1.69.5-.02,1-.03,1.48-.03-.05.41-.1.83-.16,1.23,0,.03.04.04.05.01.12-.41.23-.83.33-1.24,7.23-.06,12.24,1.15,13.41,2.76.12.16.19.32.21.49.04.31-.11.68-.43,1.08-.15.19-.33.38-.54.56l-.04.03c-2.9,2.54-10.61,4.91-19.21,5.91-9.14,1.06-17.6.38-20.57-1.66Zm28.48,16.54c.16-.22.32-.44.47-.67.55-.26,1.07-.56,1.56-.89.69-.46,1.34-.98,1.94-1.52l-.03-.04c-.83.41-1.7.76-2.59,1.02.26-.46.51-.92.73-1.37.67-.3,1.3-.65,1.89-1.04.69-.46,1.34-.98,1.94-1.52l-.03-.04c-1.01.5-2.07.91-3.16,1.18.19-.46.36-.92.51-1.37.74-.32,1.44-.7,2.09-1.13.69-.46,1.34-.98,1.94-1.52l-.03-.04c-1.14.56-2.35,1.02-3.58,1.27.13-.5.24-.99.32-1.46.66-.3,1.29-.65,1.87-1.04.69-.46,1.34-.98,1.94-1.52l-.03-.04c-1.15.57-2.37,1.03-3.62,1.28.04-.48.05-.92.03-1.33,0-.04.97-.45,1.07-.5.55-.29,1.1-.64,1.58-1.05.5-.42.93-.91,1.42-1.35l-.03-.04c-.21.1-.42.2-.63.29-.21.09-.43.18-.64.27-1.77.68-3.61,1.2-5.47,1.54-.45.08-.9.16-1.35.23-.2.03-.4.06-.59.09-.2.03-.4.05-.59.08-.2.03-.4.05-.6.08-.2.03-.4.05-.61.07-.21.02-.41.05-.62.07-.21.02-.42.05-.64.07-.22.03-.44.05-.66.08-.11.01-.22.03-.32.04l-.02-.97c7.01-.64,12.9-2.4,17.16-5.76.17.55.31,1.11.39,1.68l.06.4h0s0,.05,0,.07c.8,6.9-4.77,13.48-13.13,16.42Zm20.07-21.16c-.37,1.02-1.47,1.51-2.39,1.84-.52.17-1.04.29-1.58.35l-.05-.14c.46-.28.92-.53,1.37-.79.62-.38,1.28-.74,1.69-1.3.41-.58-.03-1.14-.32-1.7l.09-.11c.77.19,1.47,1,1.19,1.85Z" fill="#fff" stroke-width="0"/>
    </g>
    <g>
      <path d="m157.91,241.21l-.11-.14,5.55-19c-13.13-.58-30.84-1.48-43.58-12.38.23,9.26,2.78,14.46,6.27,21.58.46.94.93,1.91,1.41,2.91l.22.45-.5.03c-3.06.17-6.09.87-9.29,1.59-3.13.71-6.35,1.45-10.05,1.84,11.83,11.74,29.68,13.08,46.96,14.39,5.63.42,11.42.86,16.93,1.65-4.72-2.73-9.26-6.97-13.82-12.94Z" fill="#fff" stroke-width="0"/>
      <path d="m177.5,255.84v-.12s1.67-9.99,1.67-9.99c-6.13-.52-12.36-.82-16.84-2.02,4.71,6,10.27,9.6,15.16,12.12Z" fill="#fff" stroke-width="0"/>
      <path d="m441.05,189.91l-.58-.2.14-.59c1.05-4.4,3.16-9.06,6.45-14.24-.63-.02-1.26-.02-1.89-.03-10.08-.09-20.91.95-30.57,2.94l6.15,16.38.16.42-.33.31-14.81,14.16c14.67-4,29.18-5.95,43.17-5.83,3.47.03,6.97.19,10.42.48-6.51-6.14-13.17-12.01-18.3-13.79Z" fill="#fff" stroke-width="0"/>
      <path d="m397.82,203.48l2.92,7.92,15.19-14.52c-5.83,2.21-11.91,4.43-18.11,6.6Z" fill="#fff" stroke-width="0"/>
      <path d="m265.94,220.79c-.14-.78-.43-1.13-.88-1.05-.31.05-.48.33-.49.85s.04,1.12.17,1.84c.24,1.4.62,2.06,1.12,1.98.19-.03.34-.17.43-.42.1-.25.1-.6.02-1.05l-.38-2.15Z" fill="#fff" stroke-width="0"/>
      <path d="m175.2,223.76l-.62-.1-.97,6.41.67.1c.43.07.83-.17,1.19-.71.37-.55.61-1.33.73-2.34.11-.86.08-1.62-.09-2.27-.16-.66-.47-1.03-.92-1.1Z" fill="#fff" stroke-width="0"/>
      <path d="m246.42,224.46c.46-.07.65-.45.54-1.16-.11-.72-.4-1.05-.87-.98-.47.07-.65.47-.55,1.2.1.69.39,1,.88.93Z" fill="#fff" stroke-width="0"/>
      <path d="m205.23,227.1c-.17-.2-.38-.29-.62-.28-.57.03-.83.54-.79,1.55l1.71-.08c-.03-.6-.14-1-.31-1.19Z" fill="#fff" stroke-width="0"/>
      <path d="m295.4,214.08c-.2-.17-.42-.22-.66-.17-.56.12-.74.67-.53,1.64l1.68-.35c-.13-.58-.29-.95-.49-1.12Z" fill="#fff" stroke-width="0"/>
      <path d="m325.35,207.21c-.21-.16-.43-.21-.66-.15-.55.14-.71.69-.48,1.66l1.67-.41c-.14-.57-.32-.94-.53-1.09Z" fill="#fff" stroke-width="0"/>
      <path d="m248.02,229.41l-1.49.1c-.09,0-.18.02-.27.03-.42.06-.6.27-.55.64.05.34.24.53.57.58.33.05.76.04,1.29-.04.5-.07.82-.18.94-.32.13-.14.17-.32.14-.53-.02-.15-.07-.27-.15-.36-.08-.09-.24-.13-.49-.11Z" fill="#fff" stroke-width="0"/>
      <path d="m258.62,221.03c-.19-.18-.41-.24-.65-.2-.56.1-.76.64-.6,1.63l1.69-.28c-.1-.59-.25-.97-.44-1.14Z" fill="#fff" stroke-width="0"/>
      <path d="m276.6,217.85c-.2-.17-.42-.23-.65-.19-.56.11-.75.65-.57,1.64l1.69-.32c-.11-.58-.27-.96-.47-1.13Z" fill="#fff" stroke-width="0"/>
      <path d="m219.24,226.51c-.15-.35-.37-.52-.67-.49-.28.02-.46.23-.56.61-.1.39-.11,1.01-.04,1.87.09,1.01.21,1.68.37,1.99.16.32.38.46.65.44.38-.03.58-.33.62-.9.03-.56.02-1.15-.03-1.76-.07-.83-.19-1.42-.33-1.77Z" fill="#fff" stroke-width="0"/>
      <path d="m344.71,204.83c-.96.42-1.34,1-1.14,1.75.13.51.4.71.8.6.25-.07.44-.23.56-.49.12-.26.09-.74-.11-1.46l-.11-.41Z" fill="#fff" stroke-width="0"/>
      <path d="m383.25,193.34c-.24-.77-.47-1.32-.69-1.62-.22-.31-.47-.41-.76-.32-.27.08-.41.32-.42.71-.01.39.1.99.35,1.8.29.95.55,1.56.77,1.82.22.27.46.36.72.28.36-.11.5-.44.42-.99-.08-.55-.21-1.11-.39-1.68Z" fill="#fff" stroke-width="0"/>
      <path d="m182.88,226.87c-.27-.02-.49.16-.64.53-.15.37-.26.99-.33,1.85-.07,1.02-.06,1.69.06,2.03.11.34.31.52.58.53.38.03.64-.24.75-.8.12-.56.2-1.14.23-1.75.05-.83.03-1.43-.07-1.81-.09-.37-.29-.57-.59-.59Z" fill="#fff" stroke-width="0"/>
      <path d="m197.28,227.16c-.32,0-.52.27-.61.77-.09.51-.13,1.13-.12,1.86.02,1.44.29,2.15.8,2.14.2,0,.36-.12.49-.35.13-.23.19-.58.19-1.04l-.04-2.2c-.02-.8-.25-1.19-.7-1.18Z" fill="#fff" stroke-width="0"/>
      <path d="m398.29,188.9c-.93.47-1.28,1.06-1.04,1.8.16.5.44.68.83.55.25-.08.42-.25.53-.51.11-.26.04-.74-.19-1.44l-.13-.4Z" fill="#fff" stroke-width="0"/>
      <path d="m418.98,194.22l-6.42-17.11-3.04-8.09c-82.57,28.57-214.85,57.06-239.79,37.83l-4.36,14.92-5.62,19.25c4.84,1.38,10.64,2.32,17.24,2.85,48.92,3.97,142.21-14.42,222.02-42.35,6.77-2.37,13.44-4.8,19.98-7.3Zm-240.15,33.2c-.18,1.78-.69,3.18-1.57,4.21-.88,1.01-1.95,1.51-3.19,1.3l-3.51-.54,1.88-10.28.27-1.48,2.89.45c.99.18,1.77.63,2.31,1.44.14.21.26.43.36.68.52,1.25.72,2.66.57,4.21Zm7.28,2.06c-.06,1.33-.42,2.42-1.1,3.29-.68.85-1.57,1.23-2.64,1.16-1.06-.07-1.87-.58-2.41-1.54-.42-.76-.63-1.61-.65-2.53,0-.26,0-.52.02-.78.06-.67.2-1.27.41-1.81.2-.53.48-1,.81-1.41.69-.84,1.51-1.23,2.48-1.17.98.06,1.74.56,2.3,1.47.56.89.82,2,.77,3.31Zm6.98-1.07l-.02,5.68h-2.48s.09-5.59.09-5.59c0-.46-.04-.75-.13-.88-.1-.13-.22-.2-.37-.2-.44-.01-.66.42-.68,1.31l-.12,5.34-2.49-.08.33-8.88,2.19.07-.03,1.26c.35-.96.93-1.4,1.77-1.4.44,0,.81.13,1.11.37.3.25.52.57.65.96.13.39.19,1.08.19,2.05Zm7.44,5.58l-2.31.06-.02-1.18c-.32.92-.88,1.38-1.67,1.4-.73.02-1.32-.4-1.78-1.19-.46-.8-.68-1.96-.68-3.49,0-1.43.22-2.56.65-3.39.44-.84,1-1.24,1.72-1.26.6-.01,1.1.31,1.5.97l-.07-3.76,2.32-.05.34,11.9Zm6.66-1.01c-.52.64-1.26.98-2.21,1.02-1.06.05-1.92-.34-2.58-1.18-.66-.83-1.01-1.91-1.05-3.18-.04-1.33.22-2.44.8-3.38.57-.94,1.35-1.43,2.36-1.48.97-.04,1.78.35,2.43,1.18.65.83,1.02,1.99,1.1,3.46,0,.12.01.29.02.5l-4.15.19c.03.56.12.97.26,1.23.14.26.4.39.76.37.53-.02.83-.4.88-1.13l2.28.11c-.09.88-.39,1.63-.91,2.27Zm193.76-49.13c.32-.69.89-1.16,1.69-1.43,1.41-.48,2.56-.06,3.44,1.23l-1.58,1.04c-.32-.43-.75-.55-1.26-.38-.25.08-.41.19-.5.33-.09.13-.12.25-.09.34.09.27.33.37.72.3,1.01-.17,1.71-.24,2.1-.2.39.04.78.23,1.17.56.38.33.67.79.87,1.37.31.89.28,1.69-.08,2.4-.36.71-1.01,1.22-1.96,1.54-1.59.54-2.86.04-3.79-1.49l1.7-.96c.3.55.81.71,1.53.47.6-.2.84-.46.73-.78-.05-.14-.14-.23-.28-.27s-.44-.03-.9.04c-1.27.17-2.13.06-2.6-.33-.46-.39-.79-.89-.99-1.49-.28-.84-.26-1.6.06-2.28Zm-9.84-.93l.83,2.56-2.29.75-.82-2.56,2.29-.74Zm-25.71,7.89l.76,2.59-2.32.68-.75-2.59,2.31-.67Zm-94.64,22.51l.49,2.69-2.37.42-.48-2.69,2.36-.42Zm-58.38,20.07l-.81-11.86,2.33-.15.9,11.85-2.41.16Zm9.15-1.89c-.55.94-1.35,1.45-2.39,1.54-1.03.09-1.89-.3-2.57-1.16-.68-.86-1.06-1.9-1.16-3.13-.1-1.32.12-2.44.68-3.38.55-.93,1.32-1.44,2.31-1.52,1-.08,1.84.28,2.54,1.09.69.8,1.1,1.86,1.23,3.16.13,1.32-.08,2.45-.63,3.39Zm6.84-.22c-.51.62-1.26.99-2.26,1.09-1.68.17-2.81-.61-3.38-2.36l1.88-.57c.17.62.64.9,1.4.82.63-.06.92-.27.89-.61-.02-.15-.09-.26-.22-.33-.13-.07-.43-.13-.89-.17-1.28-.12-2.1-.43-2.46-.93s-.57-1.07-.64-1.71c-.09-.9.1-1.65.57-2.26.46-.61,1.12-.96,1.96-1.04,1.48-.15,2.5.53,3.08,2.01-.59.24-1.18.46-1.76.68-.22-.5-.61-.73-1.15-.67-.26.03-.44.1-.56.21-.12.11-.17.22-.16.32.03.29.24.44.63.47,1.02.06,1.72.15,2.1.28.38.13.71.41,1.02.82.3.41.49.94.56,1.56.11.96-.09,1.76-.6,2.39Zm3.45-12.04l2.37-.27.34,2.72-2.38.28-.32-2.73Zm1.44,12.14l-1.04-8.77,2.39-.28,1.09,8.76-2.43.29Zm7.31-.93l-.73-5.51c-.06-.45-.15-.74-.26-.85-.11-.11-.25-.16-.39-.14-.44.06-.6.52-.48,1.39l.69,5.26-2.42.32-1.11-8.76,2.21-.29.16,1.24c.2-.99.73-1.54,1.57-1.65.44-.06.83.02,1.17.22.34.2.6.49.78.86.18.37.34,1.03.47,1.99l.77,5.59-2.42.32Zm9.7.89c-.43.6-1.37,1.01-2.83,1.22-2.25.33-3.48-.24-3.68-1.7-.11-.8.11-1.39.66-1.8-.44-.33-.69-.76-.76-1.28-.12-.86.18-1.56.9-2.11-.71-.31-1.13-.94-1.26-1.89-.12-.86.05-1.58.51-2.13.46-.56,1.14-.9,2.06-1.03.42-.06.81-.05,1.17.02-.06-1.39.34-2.14,1.21-2.27.2-.03.48-.05.85-.05l.29,2.35h-.12c-.22.02-.37.03-.46.05-.37.05-.58.19-.62.41.53.47.86,1.09.97,1.85.13.89-.01,1.6-.44,2.12-.43.52-1.07.84-1.92.96-.02,0-.12.01-.32.03-.18.01-.27.02-.28.02-.39.06-.56.23-.52.51.04.25.23.36.58.33l1.99-.16c.73-.06,1.3.15,1.71.63.41.48.68,1.07.78,1.77.13.83-.02,1.55-.45,2.15Zm3.64-8.85c-.79.12-1.09.82-.89,2.08l.62,3.99-2.31.36-1.32-8.71,1.98-.31.28,1.8c.03-1.34.45-2.08,1.28-2.21.08-.01.2-.02.35-.02l.48,3.04c-.18-.03-.33-.04-.46-.02Zm7.3,4.1c-.44.69-1.13,1.12-2.06,1.27-1.03.18-1.93-.13-2.68-.87-.75-.75-1.22-1.75-1.42-3.01-.21-1.3-.08-2.45.38-3.43.46-.99,1.19-1.55,2.19-1.72.97-.16,1.82.13,2.56.87.74.74,1.23,1.84,1.48,3.29.02.12.04.29.08.5l-4.09.69c.1.55.23.94.4,1.19.17.24.44.33.8.27.52-.09.77-.5.74-1.22l2.27-.16c.01.88-.2,1.66-.65,2.35Zm5.81-.25l-.2-1.15c-.18.95-.65,1.49-1.42,1.62-.71.12-1.35-.17-1.92-.88-.57-.71-.98-1.81-1.24-3.3-.24-1.39-.2-2.54.09-3.43.3-.89.81-1.4,1.52-1.52.6-.1,1.15.14,1.65.72l-.64-3.67,2.33-.42,2.07,11.62-2.25.4Zm3.51-.63l-1.55-8.65,2.37-.42,1.58,8.64-2.4.43Zm8.78-2.38c-.43.7-1.1,1.14-2.03,1.31-1.03.2-1.93-.07-2.69-.79-.77-.72-1.27-1.72-1.49-2.96-.24-1.29-.14-2.43.3-3.44.43-1,1.15-1.6,2.15-1.79.97-.18,1.83.09,2.58.81.76.72,1.28,1.81,1.55,3.25.02.12.05.28.09.49l-4.07.77c.11.54.25.93.43,1.17.18.24.45.32.8.26.52-.1.76-.51.71-1.23l2.26-.21c.03.87-.17,1.66-.59,2.36Zm5.65-.36l-1.07-5.42c-.09-.45-.19-.72-.32-.83-.12-.1-.26-.14-.4-.11-.43.09-.56.56-.39,1.42l1.02,5.17-2.39.47-1.67-8.62,2.2-.43.24,1.22c.14-1,.63-1.58,1.46-1.74.44-.09.83-.04,1.18.14.35.18.63.45.84.8s.41,1,.59,1.94l1.11,5.5-2.39.48Zm6.04-1.1c-.73.15-1.32.03-1.76-.34-.44-.38-.75-1.05-.95-2.03l-.2-1.01-.55-2.71-.9.18-.44-2.19.9-.18-.53-2.8,2.23-.5.59,2.85,1.2-.25.45,2.19-1.2.25.65,3.17c.09.43.2.68.33.74.13.06.26.07.38.05.19-.04.41-.14.65-.29l.5,2.4c-.44.23-.89.39-1.35.49Zm7.24-2.38c-.41.71-1.08,1.16-2,1.35-1.02.22-1.93-.03-2.71-.74-.78-.71-1.3-1.68-1.56-2.92-.27-1.28-.19-2.43.22-3.44.41-1.01,1.11-1.62,2.11-1.82.96-.2,1.83.05,2.6.76.77.71,1.31,1.77,1.62,3.2.02.12.06.28.1.49l-4.05.86c.12.54.27.92.46,1.16.18.23.45.31.81.24.52-.11.75-.52.69-1.25l2.26-.26c.05.87-.13,1.66-.54,2.37Zm6.75-1.42c-.43.67-1.14,1.11-2.11,1.33-1.64.36-2.85-.28-3.61-1.93l1.79-.77c.24.59.73.81,1.48.64.61-.14.89-.37.81-.71-.03-.15-.12-.25-.25-.3-.14-.05-.44-.08-.9-.06-1.28.03-2.13-.18-2.55-.63-.42-.45-.69-.98-.83-1.61-.19-.88-.09-1.64.31-2.29.39-.65,1.01-1.07,1.84-1.25,1.46-.32,2.55.22,3.29,1.63l-1.68.87c-.28-.47-.68-.64-1.21-.53-.25.06-.43.15-.53.27-.1.13-.14.24-.12.33.06.28.29.41.68.39,1.02-.06,1.73-.05,2.11.03.39.09.75.32,1.1.69.35.38.59.87.72,1.48.21.94.1,1.74-.33,2.41Zm9.46-2.28c-.35.74-.94,1.2-1.77,1.39-.92.21-1.77-.02-2.53-.71-.76-.69-1.29-1.67-1.58-2.95-.3-1.31-.26-2.45.12-3.43.38-.98,1.02-1.57,1.92-1.78.81-.18,1.54-.01,2.19.51.66.52,1.14,1.26,1.44,2.22l-2.01.72c-.29-.88-.64-1.27-1.03-1.18-.25.06-.4.26-.44.62-.04.35.03.94.22,1.74.16.7.34,1.2.53,1.51.19.31.44.43.72.36.42-.1.58-.58.46-1.44l2.07-.22c.14,1.01.03,1.89-.32,2.63Zm5.45-.49l-.33-1.39c-.07,1.12-.57,1.8-1.5,2.02-.57.14-1.07.02-1.49-.35s-.73-.98-.92-1.82l-1.43-6.08,2.35-.56,1.27,5.35c.08.33.17.56.27.68.1.12.24.16.43.11.2-.05.34-.19.42-.42.08-.23.07-.53-.01-.9l-1.21-5.1,2.32-.55,2.04,8.49-2.19.52Zm8.45-2.81c-.39.72-1.04,1.19-1.95,1.42-1.02.25-1.92.04-2.73-.64-.81-.68-1.35-1.63-1.65-2.86-.31-1.27-.27-2.41.11-3.42.38-1.01,1.06-1.65,2.05-1.89.95-.24,1.83-.02,2.62.66.79.68,1.37,1.72,1.72,3.13.03.12.07.28.11.48l-4.02,1c.14.53.3.91.49,1.14.19.23.46.3.82.21.51-.13.73-.55.65-1.27l2.25-.34c.08.86-.08,1.66-.47,2.37Zm5.62-.66l-1.35-5.32c-.11-.44-.23-.7-.36-.8-.13-.1-.26-.13-.41-.09-.43.11-.53.58-.32,1.43l1.28,5.08-2.36.59-2.12-8.46,2.17-.54.3,1.2c.09-.99.55-1.6,1.37-1.81.43-.11.83-.09,1.19.07.36.16.65.41.88.75.22.34.46.97.69,1.9l1.39,5.4-2.36.61Zm5.97-1.42c-.72.19-1.31.11-1.77-.24-.45-.35-.8-1-1.05-1.96l-.25-.99-.69-2.66-.89.23-.55-2.15.89-.23-.67-2.75,2.2-.62.73,2.79,1.19-.31.56,2.15-1.19.31.81,3.11c.11.43.23.66.37.71.13.05.26.06.39.03.19-.05.4-.15.64-.31l.62,2.35c-.43.25-.87.43-1.32.54Zm6.02-1.71c-.15-.34-.28-.73-.4-1.15-.18,1.01-.71,1.63-1.57,1.86-.71.19-1.3.08-1.79-.34-.49-.41-.81-.95-.99-1.61-.23-.89-.13-1.68.29-2.39.43-.7,1.36-1.3,2.79-1.8l-.05-.19c-.1-.37-.22-.6-.37-.69-.15-.09-.34-.1-.57-.04-.54.14-.76.53-.66,1.16l-2.21.29c-.16-1.84.65-3,2.41-3.47.48-.13.94-.18,1.38-.15.44.03.81.15,1.12.38.31.22.55.49.72.78.17.3.37.9.62,1.81l.9,3.35c.17.64.38,1.17.62,1.59l-2.24.6Zm6.77-1.84l-1.45-5.28c-.12-.43-.24-.7-.37-.79s-.27-.12-.41-.08c-.42.12-.52.59-.29,1.43l1.38,5.04-2.35.64-2.27-8.4,2.16-.59.32,1.19c.07-1,.52-1.61,1.34-1.83.43-.12.83-.1,1.19.05.36.15.66.39.89.73.23.34.47.96.73,1.88l1.48,5.36-2.35.65Zm10.11-2.84l-1.43-5.02c-.13-.46-.26-.77-.38-.92-.12-.15-.28-.2-.49-.14-.16.05-.28.15-.36.32-.08.17-.11.33-.09.47.02.15.1.45.23.9l1.34,4.72-2.34.67-3.16-11.22,2.31-.66,1.09,3.84c.2-.89.64-1.43,1.31-1.63.34-.1.66-.1.97,0,.31.09.57.25.78.47.22.22.38.45.5.68.12.23.28.7.48,1.41l1.56,5.43-2.34.67Zm3.58-1.02l-2.41-8.34,2.32-.68,2.43,8.33-2.34.68Zm8.09-3.07c-.38.69-1.05,1.18-2.01,1.47-1.61.48-2.86-.07-3.73-1.64l1.74-.9c.28.57.79.75,1.52.53.6-.18.86-.43.76-.76-.04-.14-.13-.23-.27-.28-.14-.04-.44-.04-.9,0-1.28.12-2.14-.02-2.58-.43-.45-.41-.76-.92-.94-1.53-.25-.85-.2-1.61.15-2.29.35-.67.93-1.13,1.75-1.37,1.43-.42,2.56.04,3.39,1.37l-1.62.98c-.31-.44-.72-.59-1.25-.43-.25.07-.42.18-.51.31-.09.13-.13.24-.1.34.08.27.32.38.71.33,1.01-.14,1.72-.18,2.11-.12.39.06.77.26,1.14.6.37.35.64.82.82,1.41.27.91.22,1.71-.17,2.41Zm4.22-.48c-.72.22-1.31.17-1.77-.16-.47-.33-.84-.96-1.12-1.9l-.29-.97-.79-2.62-.88.27-.64-2.11.88-.27-.78-2.71,2.17-.71.84,2.75,1.17-.36.64,2.11-1.18.36.93,3.06c.13.42.26.65.4.69s.26.05.39.01c.19-.06.39-.17.62-.34l.71,2.31c-.42.27-.85.47-1.3.6Zm7.05-3.47c-.34,1.01-1.01,1.68-2,1.99-.98.3-1.9.11-2.74-.56-.84-.68-1.44-1.59-1.79-2.74-.38-1.24-.39-2.36-.05-3.37.35-1.01,1-1.66,1.96-1.95.97-.3,1.87-.14,2.71.49.84.63,1.46,1.55,1.84,2.77.39,1.23.41,2.36.07,3.37Zm3.16-3.98l1.2,3.78-2.22.7-2.6-8.25,1.92-.6.54,1.7c-.17-1.31.14-2.09.94-2.34.08-.03.2-.05.34-.07l.92,2.87c-.18,0-.33.02-.46.06-.76.24-.96.96-.58,2.15Zm3.52,3.04l-2.64-8.23,2.29-.75,2.67,8.22-2.32.76Zm3.55-1.79s-.07-.07-.11-.1c-.44-.37-.77-.85-.96-1.44-.17-.53-.2-1.03-.12-1.51.05-.3.13-.59.29-.87.39-.72,1.28-1.37,2.68-1.94l-.06-.19c-.12-.36-.26-.58-.41-.66-.16-.08-.35-.08-.57,0-.53.17-.73.57-.59,1.19l-2.1.39-.09.02c-.02-.12-.02-.22-.03-.33-.12-1.62.61-2.71,2.24-3.24.47-.15.93-.23,1.36-.23.44,0,.82.1,1.14.3.32.2.57.45.76.73.18.29.42.87.72,1.76l1.09,3.27c.21.62.44,1.13.71,1.53l-2.2.74c-.17-.33-.32-.7-.46-1.12-.13,1.01-.62,1.66-1.46,1.93-.7.23-1.3.15-1.81-.23Z" fill="#fff" stroke-width="0"/>
    </g>
  </g>
  <g>
    <path d="m92.69,173.32s-.05-.02-.08,0c-.02.01-.03.03-.05.04-.31.27-.7.47-1.07.65-.16.08-.33.16-.49.25-.4.22-.76.49-1.06.71-.84.64-1.86,1.53-2.25,2.72-.05.17-.1.35-.14.52-.06.25-.12.51-.22.74-.15.35-.47.75-.91.79-.16.02-.26.16-.27.37,0,.18.07.35.12.46.13.26.31.49.49.72.24.31.47.61.58.97.04.12.06.25.09.37.05.25.1.51.24.71-.22-.03-.44,0-.62.07-.02,0-.03.02-.03.04,0,.02,0,.04.02.05.79.64,1.48,1.39,2.04,2.23.44.65.66,1.21.67,1.71.03-.06.06-.12.09-.18.04-.09.09-.17.14-.25.02-.38.02-.76.02-1.13,0-.11,0-.22,0-.34-.09-.47-.24-.91-.42-1.35-.59-1.44-1.57-2.81-1.7-4.41,0-.04.05-.05.06,0,.28,1.59,1.37,2.82,1.92,4.31.02.07.05.13.07.2-.05-.62-.13-1.23-.24-1.83-.08-.5-.13-1.02-.14-1.55-.01-.53,0-1.06.07-1.58.06-.74-.03-1.51-.25-2.23-.01-.03.04-.05.05-.02.16.39.29.81.36,1.23.33-1.55,1.01-3.01,2.13-4.06-1.57,1.73-2.16,4.14-1.94,6.43,0,.02,0,.03,0,.05.24-.63.59-1.22.98-1.75.21-.28.44-.53.68-.77,0,0,.02,0,.02.01-.44.52-.81,1.1-1.1,1.71-.22.45-.37.92-.51,1.4.13.93.37,1.85.42,2.8.04.71.02,1.43-.08,2.14,0,.06-.02.12-.03.18.08-.12.16-.24.24-.35.03-.06.06-.12.09-.18.36-.74.63-1.53.79-2.37.06-.3.13-.7.14-1.09v-.03c.05-1.19-.03-1.22-.08-1.24-.18-.07-.36.07-.51.19,0-.16.09-.33.19-.48.1-.15.21-.3.32-.44.38-.5.77-1.02.88-1.64,0-.02,0-.04-.03-.06-.02-.01-.04,0-.06,0-.02.02-.03.04-.05.06-.04,0-.09,0-.13,0-.04,0-.08,0-.13,0,.44-.57.61-1.31.76-2.07,0-.02,0-.05-.03-.06-.02-.01-.05,0-.06,0-.04.04-.1.07-.15.09-.09.05-.19.12-.29.18-.04.03-.08.06-.13.09.06-.17.06-.36.05-.54,0-.2-.03-.4-.04-.59-.03-.36-.06-.72-.04-1.08.04-.67.21-1.13.52-1.43.01-.01.03-.03.04-.04.02-.02.02-.05,0-.08Z" fill="#fff" stroke-width="0"/>
    <path d="m92.85,184.73c-1.16,1.09-2.13,2.4-2.77,3.86-.2.43-.85.17-.68-.29.12-.29.25-.57.39-.85,0,.13,0,.25-.02.37,0,.03.01.06.04.06.01,0,.03,0,.04,0,.01,0,.02-.02.03-.04.04-.15.08-.3.13-.44l.33-.76c.07-.15.15-.3.22-.44.02-.03.03-.07.05-.1.53-.76,1.16-1.46,1.85-2.09,0,.15,0,.3.01.45v.29s.02.03.03.04c.01,0,.03.01.05,0,.09-.03.2-.06.3-.07Z" fill="#fff" stroke-width="0"/>
    <path d="m108.34,171.1s-.05-.02-.08,0c-.87.79-1.24.9-2.13,1.17-.11.03-.23.07-.36.11h-.02c-.4.13-1.09.34-1.89.81.34-.37.64-.78.88-1.22,0-.02,0-.04,0-.06-.01-.02-.03-.02-.05-.02-.73.17-1.42.5-2.03.99.14-.27.2-.56.24-.9,0-.02,0-.04-.02-.05-.01-.01-.03-.02-.05-.01-.95.3-1.76.8-2.34,1.46-.06.07-.13.15-.19.23-.33.39-.67.79-1.14.89-.07-.22-.11-.41-.01-.64,0-.02,0-.04-.01-.06-.01-.02-.04-.02-.06-.01-.61.2-1.09.73-1.52,1.2-.05.06-.11.12-.16.17-.17.19-.34.35-.54.43-.02-.07-.02-.15-.03-.24,0-.1-.02-.21-.05-.31,0-.02-.02-.03-.03-.04-.02,0-.03,0-.05,0-.74.51-1.3,1.28-1.64,2.25-.03-.06-.05-.13-.08-.2-.03-.08-.06-.17-.1-.24,0-.01-.02-.02-.04-.03-.02,0-.03,0-.04.01-.77.75-1.09,1.85-1.32,2.82-.22-.02-.36.05-.52.26-.15.2-.23.45-.28.69-.27,1.13-.26,2.33-.23,3.36,0,.02,0,.03,0,.05,0,0,0,0,.01-.01.01.01.02.02.04.02,0,0,.02,0,.02,0,.02,0,.03-.03.03-.05,0-.01,0-.03,0-.04.3-.27.62-.52.94-.77.15-.11.3-.21.46-.32.26-.46.43-.98.62-1.47.3-.78.61-1.56.94-2.33,0-.02.03,0,.03,0-.22.81-.47,1.61-.72,2.41-.12.35-.23.72-.37,1.07.81-.48,1.68-.86,2.55-1.24.78-.76,1.34-1.72,1.67-2.76.26-.8.47-1.63.82-2.41.35-.78.84-1.49,1.39-2.14.28-.32.57-.63.87-.92,0-.01.03,0,.02.02-1.13,1.24-2.06,2.69-2.47,4.33-.32,1.22-.69,2.52-1.53,3.52-.02.02-.04.04-.06.07.54-.23,1.08-.47,1.61-.73.76-.38,1.48-.82,2.15-1.32.21-.27.37-.58.5-.9.24-.61.38-1.28.66-1.89.28-.61.67-1.16.91-1.79,0,0,.02,0,.01,0-.19.87-.7,1.63-.91,2.5-.13.49-.24,1.02-.45,1.5,1.95-1.64,3.54-3.73,5.01-5.8l.7-1.01s.03-.02.04-.03c-.17.27-.3.57-.39.9h0c-1.47,2.46-3.15,4.89-5.33,6.73.53.03,1.06.11,1.59.13.36.02.73.01,1.09-.03.36-.05.72-.13,1.06-.27,0,0,.02.01,0,.02-.98.58-2.17.57-3.27.52-.28,0-.6-.06-.88-.04-.68.53-1.4,1.01-2.18,1.41-.48.25-.96.48-1.45.7.05,0,.11,0,.16.01,1.55.19,2.98,1.3,4.57.8.01,0,.02.02,0,.02-1.54.59-3.08-.43-4.6-.53-.36-.02-.73,0-1.06.11-.84.37-1.68.76-2.46,1.23.1,0,.19.01.29.02,1.07.11,2.03.58,3.06.82.5.12,1.03.19,1.55.11.01,0,.02,0,.02.02,0,.01,0,.02-.02.02-1.82.36-3.61-.95-5.4-.67-.11.08-.23.16-.34.24-.34.25-.66.52-.98.81h0s-.07,0-.1.01c-.03,0-.05.03-.05.06,0,.02.01.03.03.04,0,0-.01.01-.02.02.02,0,.04,0,.06-.01.44-.06.92.01,1.32.09.91.17,1.83.39,2.71.61.4.1.79.19,1.19.29h.03c.81.2,1.73.41,2.51.13,0,0,0,0,0,0,.01,0,.02-.02.02-.03,0-.01,0-.03,0-.04-.1-.23-.28-.41-.5-.53h-.01s-.09-.05-.1-.08c-.03-.06.05-.15.11-.18.24-.15.56-.18.86-.21.35-.04.72-.07.99-.29.02-.02.03-.05.01-.07s-.04-.03-.07-.02c-.02,0-.05,0-.06,0-.03-.02-.05-.05-.06-.09-.01-.08.04-.15.08-.2.13-.16.35-.27.65-.34.09-.02.17-.03.26-.05.17-.03.34-.06.51-.12.4-.15.73-.52,1.02-.84.06-.07.11-.13.17-.19.02-.02.02-.04,0-.07s-.04-.03-.06-.02c-.04.01-.07,0-.09-.02-.04-.04-.07-.1-.07-.15,0-.11.1-.21.18-.28.3-.27.7-.47,1.09-.66.4-.2.8-.4,1.12-.68.02-.02.02-.04.01-.07s-.04-.03-.06-.03c-.23.06-.52.1-.77.09.63-.44,1.18-1.1,1.56-1.87,0-.02,0-.04,0-.06-.01-.02-.03-.02-.05-.02-.11.02-.24.05-.36.08-.07.01-.13.03-.2.04.5-.55.94-1.2,1.23-1.8,0-.02,0-.04,0-.05-.01-.02-.03-.03-.05-.02-.24.02-.55.1-.76.16.45-.66.8-1.48.95-2.23,0-.02,0-.04-.02-.05-.02-.01-.04-.01-.06,0-.15.07-.32.16-.49.25-.11.06-.23.12-.34.17.17-.41.18-.87.18-1.31,0-.11,0-.22,0-.32.01-.48.1-1.1.36-1.67t0,0c.08-.17.18-.34.29-.5.06-.08.12-.16.19-.23.02-.02.02-.05,0-.07Zm-1.2,4.21s0,0,0,0c0,0,0,0,0,0h0Zm-7.02,10s-.06-.03-.08-.05c.03.02.05.04.08.05Zm1.75-.86s-.03-.02-.04-.04c.01.01.03.03.04.04h0Zm2.53-1.92s-.03-.02-.05-.03c.02.01.03.02.05.03h0Zm2.08-1.84h0c-.25.04-.52.06-.75.03h0c.23.02.51,0,.75-.03Zm.58-1.83c.08-.02.17-.04.25-.06h0c-.08.02-.17.04-.25.06-.13.03-.25.06-.37.08-.01,0-.02,0-.03,0,.01,0,.02,0,.03,0,.11-.02.24-.05.37-.08Zm.86-1.82h0c-.28.04-.64.15-.79.19-.02,0-.03,0-.04,0,.01,0,.03.01.04,0,.15-.05.51-.15.79-.19Zm-.24-1.9c.13-.07.26-.14.39-.2,0,0,0,.01,0,.02,0,0,0-.01,0-.02-.12.06-.25.13-.39.2-.17.09-.34.17-.48.25-.02,0-.04,0-.05,0,.02.01.03.01.05,0,.15-.07.31-.16.48-.25Zm-.42-.16c.1-.34.1-.71.11-1.08,0-.02,0-.05,0-.07,0,.02,0,.05,0,.07,0,.36,0,.74-.11,1.08Z" fill="#fff" stroke-width="0"/>
  </g>
</svg>